
<svg width="150px" height="150px" viewBox="0 0 150 150" version="1.1" xmlns="http://www.w3.org/2000/svg" xmlns:xlink="http://www.w3.org/1999/xlink">
    <!-- Generator: Sketch 49.3 (51167) - http://www.bohemiancoding.com/sketch -->
    <desc>Created with Sketch.</desc>
    <defs></defs>
    <g id="Page-1" stroke="none" stroke-width="1" fill="none" fill-rule="evenodd">
        <g id="Group-4">
            <circle id="Oval-Copy-2" fill="#9CCB3A" cx="75" cy="75" r="75"></circle>
            <g id="wind" transform="translate(36.170213, 36.170213)">
                <rect id="bounding" x="0" y="0" width="77.6595745" height="77.6595745"></rect>
                <path d="M35.7486953,17.0212766 C35.7486953,11.1459069 40.6059834,6.38297872 46.5977519,6.38297872 C52.5895204,6.38297872 57.4468085,11.1459069 57.4468085,17.0212766 C57.4468085,22.8966463 52.5895204,27.6595745 46.5977519,27.6595745 L7.44680851,27.6595745" id="top" stroke="#FFFFFF" stroke-width="3.5" stroke-linecap="round"></path>
                <path d="M48.1375575,62.7659574 C48.1375575,67.4662532 51.8885292,71.2765957 56.5155873,71.2765957 C61.1426453,71.2765957 64.893617,67.4662532 64.893617,62.7659574 C64.893617,58.0656617 61.1426453,54.2553191 56.5155873,54.2553191 L7.44680851,54.2553191" id="bottom" stroke="#FFFFFF" stroke-width="3.5" stroke-linecap="round"></path>
                <path d="M66.8995129,41.4893617 C72.8421308,41.4893617 77.6595745,36.7264335 77.6595745,30.8510638 C77.6595745,24.9756942 72.8421308,20.212766 66.8995129,20.212766 L0,20.212766" id="middle" stroke="#FFFFFF" stroke-width="3.5" stroke-linecap="round" transform="translate(38.829787, 30.851064) scale(1, -1) translate(-38.829787, -30.851064) "></path>
            </g>
        </g>
    </g>
</svg>