
<svg width="150px" height="150px" viewBox="0 0 150 150" version="1.1" xmlns="http://www.w3.org/2000/svg" xmlns:xlink="http://www.w3.org/1999/xlink">
    <!-- Generator: Sketch 49.3 (51167) - http://www.bohemiancoding.com/sketch -->
    <desc>Created with Sketch.</desc>
    <defs></defs>
    <g id="Page-1" stroke="none" stroke-width="1" fill="none" fill-rule="evenodd">
        <g id="Group-4">
            <circle id="Oval-Copy-4" fill="#60A390" cx="75" cy="75" r="75"></circle>
            <g id="water" transform="translate(43.617021, 30.851064)">
                <path d="M31.3829787,2.05219643 C31.1316271,2.281563 30.829642,2.58384422 30.4859882,2.95227466 C29.4709234,4.04052322 28.1536897,5.63787682 26.6537284,7.60393529 C23.4081717,11.8580145 19.6168381,17.4198201 16.1013107,23.1490446 C7.33305684,37.438592 1.75,50.17323 1.75,57.4468085 C1.75,73.2362998 14.4084642,84.4202128 31.3829787,84.4202128 C48.3574932,84.4202128 61.0159574,73.2362998 61.0159574,57.4468085 C61.0159574,50.17323 55.4329006,37.438592 46.6646467,23.1490446 C43.1491194,17.4198201 39.3577858,11.8580145 36.112229,7.60393529 C34.6122677,5.63787682 33.2950341,4.04052322 32.2799693,2.95227466 C31.9363154,2.58384422 31.6343304,2.281563 31.3829787,2.05219643 Z" id="base" stroke="#FFFFFF" stroke-width="3.5"></path>
                <path d="M31.9148936,73.4042553 L31.9148936,73.4042553 C41.9030221,73.4042553 50,65.3072774 50,55.3191489" id="detail" stroke="#FFFFFF" stroke-width="2" stroke-linecap="round"></path>
                <path d="M19.6170213,47.106383 C16.2978723,47.106383 13.7021277,44.787234 13.7021277,40.8723404 C13.7021277,37 16.4042553,34.5957447 19.2553191,34.5957447 C22.5319149,34.5957447 24.2340426,37 24.2340426,40.2978723 C24.2340426,40.8723404 24.1702128,41.4468085 24.0851064,41.7234043 L16.7446809,41.7234043 C17,43.6808511 18.2765957,44.7021277 20.0425532,44.7021277 C21.0212766,44.7021277 21.8723404,44.4042553 22.7234043,43.8723404 L23.787234,45.787234 C22.6170213,46.5957447 21.106383,47.106383 19.6170213,47.106383 Z M16.7021277,39.6595745 L21.5531915,39.6595745 C21.5531915,38.0425532 20.8297872,37.0212766 19.2978723,37.0212766 C18.0425532,37.0212766 16.9361702,37.9148936 16.7021277,39.6595745 Z M31.8723404,47.106383 C28.5744681,47.106383 26.0638298,44.8085106 26.0638298,40.8723404 C26.0638298,36.893617 28.9148936,34.5957447 32.1489362,34.5957447 C33.6170213,34.5957447 34.7446809,35.1702128 35.6170213,35.9148936 L34.1276596,37.9361702 C33.5319149,37.4255319 32.9787234,37.1489362 32.2978723,37.1489362 C30.4893617,37.1489362 29.2553191,38.6170213 29.2553191,40.8723404 C29.2553191,43.106383 30.4893617,44.5531915 32.212766,44.5531915 C33.0638298,44.5531915 33.8723404,44.1489362 34.5319149,43.5957447 L35.7659574,45.6595745 C34.6382979,46.6595745 33.1914894,47.106383 31.8723404,47.106383 Z M43,47.106383 C40.0212766,47.106383 37.2765957,44.8085106 37.2765957,40.8723404 C37.2765957,36.893617 40.0212766,34.5957447 43,34.5957447 C45.9787234,34.5957447 48.7234043,36.893617 48.7234043,40.8723404 C48.7234043,44.8085106 45.9787234,47.106383 43,47.106383 Z M43,44.5531915 C44.6170213,44.5531915 45.5319149,43.106383 45.5319149,40.8723404 C45.5319149,38.6170213 44.6170213,37.1489362 43,37.1489362 C41.3829787,37.1489362 40.4680851,38.6170213 40.4680851,40.8723404 C40.4680851,43.106383 41.3829787,44.5531915 43,44.5531915 Z" id="eco" fill="#FFFFFF"></path>
            </g>
        </g>
    </g>
</svg>