
<svg width="150px" height="150px" viewBox="0 0 150 150" version="1.1" xmlns="http://www.w3.org/2000/svg" xmlns:xlink="http://www.w3.org/1999/xlink">
    <!-- Generator: Sketch 49.3 (51167) - http://www.bohemiancoding.com/sketch -->
    <desc>Created with Sketch.</desc>
    <defs>
        <path d="M37.5319149,72.3404255 C51.6328021,72.3404255 63.0638298,62.7551372 63.0638298,48.2269504 C63.0638298,33.6987635 39.8787816,4.53303125e-16 37.5319149,0 C35.1850482,-4.07161727e-16 12,33.6987635 12,48.2269504 C12,62.7551372 23.4310277,72.3404255 37.5319149,72.3404255 Z" id="path-1"></path>
    </defs>
    <g id="Page-1" stroke="none" stroke-width="1" fill="none" fill-rule="evenodd">
        <g id="Group">
            <circle id="Oval" fill="#60A390" cx="75" cy="75" r="75"></circle>
            <ellipse id="base" stroke="#FFFFFF" stroke-width="2.5" cx="74.2553191" cy="50.0759878" rx="11.5159574" ry="11.6679331"></ellipse>
            <g id="map" transform="translate(38.000000, 25.531915)">
                <g transform="translate(0.297872, 34.042553)" stroke="#FFFFFF">
                    <path d="M1.75,3.4397411 L1.75,55.038185 C1.75,56.2504754 2.74582022,57.7837835 3.8485855,58.2741986 C4.43087619,58.5331514 4.43087619,58.5331514 6.17774825,59.3100098 C7.29730797,59.8078937 7.29730797,59.8078937 8.11029863,60.169442 C10.9889007,61.4495966 10.9889007,61.4495966 14.5071098,63.0141933 C17.8757161,64.5122596 17.8757161,64.5122596 20.682888,65.7606482 C22.9286255,66.7593591 22.9286255,66.7593591 23.4900599,67.0090368 C23.8919229,67.1877509 24.7318069,67.1723278 25.1195577,66.9825087 L44.1649449,57.6590506 C45.4815913,57.0145009 47.4126258,56.9808668 48.7527501,57.5770438 L68.3937763,66.3146875 C68.9585148,66.565921 69.0650127,66.4966523 69.0650127,65.8674306 L69.0650127,14.2689867 C69.0650127,13.0562774 68.0709976,11.52388 66.9711634,11.0346001 L47.3301373,2.29695642 C46.9362935,2.1217483 46.0876843,2.13675102 45.7038293,2.32466299 L26.6584421,11.6481211 C25.3426286,12.2922631 23.4156221,12.3285017 22.0796225,11.7343641 L2.42251829,2.99257505 C1.8478947,2.7370319 1.75,2.80110392 1.75,3.4397411 Z" id="base" stroke-width="3.5"></path>
                    <path d="M24.3426606,14.0780193 L24.3426606,66.058398" id="Line" stroke-width="2" stroke-linecap="round"></path>
                    <path d="M46.4723521,3.24877367 L46.4723521,55.2291525" id="Line-Copy" stroke-width="2" stroke-linecap="round"></path>
                </g>
                <mask id="mask-2" fill="white">
                    <use xlink:href="#path-1"></use>
                </mask>
                <use id="Mask" fill="#60A390" transform="translate(37.531915, 36.170213) rotate(-180.000000) translate(-37.531915, -36.170213) " xlink:href="#path-1"></use>
            </g>
            <path d="M75.5319149,27.3270176 C75.3430738,27.5092266 75.1219206,27.7396483 74.8738015,28.01414 C74.0491073,28.926491 72.9782219,30.2665252 71.7586075,31.916106 C69.1187967,35.4865633 66.0348306,40.1549633 63.175156,44.963984 C56.0417071,56.9600703 51.5,67.6498399 51.5,73.7588652 C51.5,87.0079533 61.7714541,96.3723404 75.5319149,96.3723404 C89.2923757,96.3723404 99.5638298,87.0079533 99.5638298,73.7588652 C99.5638298,67.6498399 95.0221227,56.9600703 87.8886738,44.963984 C85.0289992,40.1549633 81.9450331,35.4865633 79.3052223,31.916106 C78.0856079,30.2665252 77.0147225,28.926491 76.1900283,28.01414 C75.9419092,27.7396483 75.720756,27.5092266 75.5319149,27.3270176 Z" id="base-copy" stroke="#FFFFFF" stroke-width="3" transform="translate(75.531915, 61.702128) rotate(-180.000000) translate(-75.531915, -61.702128) "></path>
            <circle id="base" stroke="#FFFFFF" stroke-width="2.5" cx="75.5319149" cy="48.9361702" r="12.5797872"></circle>
        </g>
    </g>
</svg>