
<svg width="117px" height="108px" viewBox="0 0 117 108" version="1.1" xmlns="http://www.w3.org/2000/svg" xmlns:xlink="http://www.w3.org/1999/xlink">
    <!-- Generator: Sketch 49.3 (51167) - http://www.bohemiancoding.com/sketch -->
    <desc>Created with Sketch.</desc>
    <defs></defs>
    <g id="Page-1" stroke="none" stroke-width="1" fill="none" fill-rule="evenodd">
        <g id="Group-9" transform="translate(3.000000, 2.000000)" stroke="#434343">
            <path d="M80.5,70.8893805 L80.5,60.5 L38.5,60.5 L38.5,70.8893805 L49.0095351,70.8893805 L49.0095351,102.5 L70.6524367,102.5 L70.6524367,70.8893805 L80.5,70.8893805 Z" id="Combined-Shape" stroke-width="5"></path>
            <path d="M71.8762615,54.7794332 C77.6120846,29.7811568 88.7841834,9.02522158 97.6837945,4.54340576" id="Path-8" stroke-width="3" stroke-linecap="round" stroke-dasharray="10,10,10,10" transform="translate(84.780028, 29.661420) rotate(4.000000) translate(-84.780028, -29.661420) "></path>
            <path d="M58,53 C49.9234482,24.2950924 37.7930209,12.5611296 22,2" id="Path-10" stroke-width="3" stroke-linecap="round" stroke-dasharray="10,10,10,10" transform="translate(40.000000, 27.500000) rotate(6.000000) translate(-40.000000, -27.500000) "></path>
            <path d="M97,43 C85.7825669,26.1147602 68.9347513,19.2124292 47,13" id="Path-10-Copy" stroke-width="3" stroke-linecap="round" stroke-dasharray="10,10,10,10" transform="translate(72.000000, 28.000000) rotate(260.000000) translate(-72.000000, -28.000000) "></path>
            <path d="M33.92,26 C16.64,35.168798 8,42.668798 8,48.5 C8,54.331202 20,61.831202 44,71" id="Line-2" stroke-width="3" stroke-linecap="round" stroke-dasharray="10,10,10,10" transform="translate(26.000000, 48.500000) rotate(90.000000) translate(-26.000000, -48.500000) "></path>
            <path d="M95.84,35 C85.28,40.0937766 80,44.2604433 80,47.5 C80,50.7395567 87.3333333,54.9062234 102,60" id="Line-2-Copy-5" stroke-width="3" stroke-linecap="round" stroke-dasharray="10,10,10,10" transform="translate(91.000000, 47.500000) rotate(90.000000) translate(-91.000000, -47.500000) "></path>
            <path d="M20.9554843,105 C21.2029702,98.9451588 20.4185291,93.9355918 18.6021609,89.971299 C16.7857928,86.0070061 12.6332605,83.3499064 6.14456408,82 C10.218008,85.1747042 12.7351682,88.1085936 13.5545114,90.903873 C14.3738546,93.6991524 14.3740805,97.7705722 13.555189,103.118132 C14.0953582,99.045152 13.1867297,95.7347159 11.5017739,93.408399 C9.81681818,91.0820821 6.31622687,90.2430647 1,90.8913468 C4.73210956,92.4743424 6.60861522,94.0617947 7.40375865,95.7719335 C8.19890209,97.4820722 8.60686361,100.122338 8.62764322,103.692732" id="Line-2-Copy" stroke-width="2" stroke-linecap="round" transform="translate(11.000000, 93.500000) rotate(-365.000000) translate(-11.000000, -93.500000) "></path>
            <path d="M97.9532585,105 C98.2131187,99.7349207 97.3894555,95.3787755 95.482269,91.9315643 C93.5750824,88.4843531 89.2149235,86.1738317 82.4017923,85 C86.6789084,87.7606123 89.3219266,90.3118205 90.182237,92.7424983 C91.0425474,95.173176 91.0427845,98.713541 90.1829485,103.363593 C90.7501261,99.8218713 89.7960662,96.9432313 88.0268626,94.920347 C86.2576591,92.8974627 82.5820382,92.1678824 77,92.7316059 C80.918715,94.1081239 82.889046,95.4885172 83.7239466,96.9755943 C84.5588472,98.4626715 84.9872068,100.758555 85.0090254,103.863245" id="Line-2-Copy-3" stroke-width="2" stroke-linecap="round" transform="translate(87.500000, 95.000000) rotate(-365.000000) translate(-87.500000, -95.000000) "></path>
            <path d="M40.9599359,105 C41.1826732,99.9981747 40.4766762,95.8598367 38.8419448,92.5849861 C37.2072135,89.3101355 33.4699344,87.1151401 27.6301077,86 C31.2962072,88.6225817 33.5616514,91.0462295 34.2990603,93.3553733 C35.0364692,95.6645172 35.0366724,99.027864 34.2996701,103.445414 C34.7858224,100.080778 33.9680567,97.3460697 32.4515965,95.4243296 C30.9351364,93.5025896 27.7846042,92.8094883 23,93.3450256 C26.3588986,94.6527177 28.0477537,95.9640913 28.7633828,97.3768146 C29.4790119,98.7895379 29.8461772,100.970627 29.8648789,103.920083" id="Line-2-Copy-2" stroke-width="2" stroke-linecap="round" transform="translate(32.000000, 95.500000) rotate(-365.000000) translate(-32.000000, -95.500000) "></path>
            <path d="M111.959936,103 C112.182673,97.9981747 111.476676,93.8598367 109.841945,90.5849861 C108.207213,87.3101355 104.469934,85.1151401 98.6301077,84 C102.296207,86.6225817 104.561651,89.0462295 105.29906,91.3553733 C106.036469,93.6645172 106.036672,97.027864 105.29967,101.445414 C105.785822,98.0807777 104.968057,95.3460697 103.451597,93.4243296 C101.935136,91.5025896 98.7846042,90.8094883 94,91.3450256 C97.3588986,92.6527177 99.0477537,93.9640913 99.7633828,95.3768146 C100.479012,96.7895379 100.846177,98.9706274 100.864879,101.920083" id="Line-2-Copy-4" stroke-width="2" stroke-linecap="round" transform="translate(103.000000, 93.500000) rotate(-365.000000) translate(-103.000000, -93.500000) "></path>
        </g>
    </g>
</svg>