
<svg width="119px" height="93px" viewBox="0 0 119 93" version="1.1" xmlns="http://www.w3.org/2000/svg" xmlns:xlink="http://www.w3.org/1999/xlink">
    <!-- Generator: Sketch 49.3 (51167) - http://www.bohemiancoding.com/sketch -->
    <desc>Created with Sketch.</desc>
    <defs></defs>
    <g id="Page-1" stroke="none" stroke-width="1" fill="none" fill-rule="evenodd">
        <g id="Group-8" transform="translate(3.000000, 2.000000)" stroke="#434343">
            <path d="M0,34.9150351 C14.2495022,17.2882817 7.73466725,23.0345966 27.1574354,9.06706166 C29.602761,7.30854969 39.3155215,-1.16381792 44.7364528,1.52146633 C46.3481888,2.31984743 53.4354549,11.795804 54,13.5 C55.2110488,17.1558009 61.2001185,16.2419476 64.5,18 C76.9123658,24.6128403 79.2257518,27.0593074 91.7086132,33.5388119 C93.9282197,34.6909476 95.8667675,36.3995049 97.5348337,38.2596744 C99.3442942,40.2775219 100.289877,42.9521615 102.020187,45.0379211 C110.713458,55.5170086 114.105069,44.4746973 112.688582,63.0567138 C112.505926,65.4528742 112.049438,67.8930478 111.04386,70.0768421 C104.252416,84.825694 85.0497778,84.3030468 71.5872451,85.1902748 C34.9658685,87.6037514 50.3833962,88.2815366 23.9404696,87.9010174 C23.6051546,87.8961921 23.228514,87.8629457 22.9647868,87.6563555 C19.2257197,84.7273647 20.1612328,83.7951141 16.2688147,79.6659203 C13.6680032,76.9069015 5.92816012,71.1114387 3.86370411,67.5634972 C0.602352761,61.9585901 3.35985651,49.1784508 2.14092695,41.8017115 L0,34.9150351 Z" id="Path-2" stroke-width="5"></path>
            <path d="M1,36.461846 C11.2956675,36.8805501 5.31560512,36.3987178 25.8278632,42.7256817 C29.7479624,43.9348282 33.6277601,45.2975725 37.4181694,46.8714054 C39.281231,47.6449756 42.1913048,47.7983182 42.7454912,49.750126 C43.9057398,53.8364444 40.9418758,62.5748014 37.0447118,65.3466702 C34.675436,67.0318243 33.1555597,66.905099 31.8536516,69.3052924 C30.2478881,72.2656723 28.7730033,81.4478589 27.4095065,78.381753 C25.8278632,74.8250993 6.87637636,70.4934233 5.2,69.3052924" id="Path-3" stroke-width="3"></path>
            <path d="M99.8342158,43 C84.6181811,43 86.6181811,55 80.6181811,58 C77.1122469,59.7529671 77.1423314,62.3830816 80.6181811,65 C84.9147193,68.2348033 95.6758834,70.0738038 99.8237136,73.408673 C101.549091,74.7958821 102.829088,76.4498243 104.473169,77.8885466 C105.136728,78.4692219 103.339936,76.622749 102.77332,75.9898502" id="Path-4" stroke-width="3"></path>
            <path d="M42.787234,49 C53.0755876,50.1831692 63.8172131,69.2324821 66.2517201,74.1156885 C67.5362428,76.6922222 70.457489,78.6111552 70.9892255,81.4078645 C71.1814459,82.4188624 68.7517484,81.4043364 67.6921462,81.691721 C65.0355931,82.4122296 62.5985978,83.7571191 59.9217956,84.4095655 C54.1056299,85.8272034 45.7302514,84.3826574 40.0668309,83.3100294 C36.8804379,82.7065399 33.9462924,80.8752272 30.6958769,80.7879479 C28.5650295,80.730731 24.696076,85.0172906 21.9270491,83.7352703" id="Path-5" stroke-width="3"></path>
            <path d="M41.4606698,3.47797512 C47.109332,4.265766 45.018784,3.72354196 53.5653858,8.27410204 C73.4198767,18.8454444 78.6129588,11.285504 92.8429247,23.4264594 C94.7527136,25.0558843 96.8846448,36.9143786 98.857472,38.4779751" id="Path-6" stroke-width="3" transform="translate(70.159071, 20.977975) rotate(183.000000) translate(-70.159071, -20.977975) "></path>
            <path d="M42,0 C42,9.02409925 34.6397924,17.4538751 33.4227967,26.5319972 C32.6059991,32.6248608 33.2407137,38.8439991 33.1496722,45" id="Path-7" stroke-width="3"></path>
        </g>
    </g>
</svg>