
<svg width="150px" height="150px" viewBox="0 0 150 150" version="1.1" xmlns="http://www.w3.org/2000/svg" xmlns:xlink="http://www.w3.org/1999/xlink">
    <!-- Generator: Sketch 49.3 (51167) - http://www.bohemiancoding.com/sketch -->
    <desc>Created with Sketch.</desc>
    <defs></defs>
    <g id="Page-1" stroke="none" stroke-width="1" fill="none" fill-rule="evenodd">
        <g id="Group-2">
            <circle id="Oval-Copy" fill="#60A390" cx="75" cy="75" r="75"></circle>
            <g id="Group-3" transform="translate(21.276596, 19.148936)" stroke="#FFFFFF">
                <g id="snow" transform="translate(25.531915, 0.000000)" stroke-linecap="round" stroke-width="3.5">
                    <g id="3" transform="translate(21.656891, 0.000000)">
                        <path d="M7.06651361,4.96453901 L7.06651361,50.3546099" id="Line"></path>
                        <polyline id="Rectangle-1-Copy" transform="translate(7.066514, 7.801418) rotate(-45.000000) translate(-7.066514, -7.801418) " points="12.0671339 12.7659574 2.06589332 12.7659574 2.06589332 2.83687943"></polyline>
                        <polyline id="Rectangle-1-Copy-2" transform="translate(7.066514, 47.517730) scale(1, -1) rotate(-45.000000) translate(-7.066514, -47.517730) " points="12.0671339 52.4822695 2.06589332 52.4822695 2.06589332 42.5531915"></polyline>
                    </g>
                    <g id="2" transform="translate(28.807160, 27.525234) rotate(-60.000000) translate(-28.807160, -27.525234) translate(21.360352, 0.397575)">
                        <path d="M7.28858857,4.42725919 L7.28858857,49.8173301" id="Line"></path>
                        <polyline id="Rectangle-1-Copy" transform="translate(7.288589, 7.264139) rotate(-45.000000) translate(-7.288589, -7.264139) " points="12.2892089 12.2286776 2.28796829 12.2286776 2.28796829 2.29959962"></polyline>
                        <polyline id="Rectangle-1-Copy-2" transform="translate(7.288589, 46.980451) scale(1, -1) rotate(-45.000000) translate(-7.288589, -46.980451) " points="12.2892089 51.9449897 2.28796829 51.9449897 2.28796829 42.0159117"></polyline>
                    </g>
                    <g id="1" transform="translate(28.368210, 27.646053) rotate(60.000000) translate(-28.368210, -27.646053) translate(20.921401, -0.013521)">
                        <path d="M7.63604262,4.6636499 L7.63604262,50.0537208" id="Line"></path>
                        <polyline id="Rectangle-1-Copy" transform="translate(7.636043, 7.500529) rotate(-45.000000) translate(-7.636043, -7.500529) " points="12.6366629 12.4650683 2.63542234 12.4650683 2.63542234 2.53599033"></polyline>
                        <polyline id="Rectangle-1-Copy-2" transform="translate(7.636043, 47.216841) scale(1, -1) rotate(-45.000000) translate(-7.636043, -47.216841) " points="12.6366629 52.1813804 2.63542234 52.1813804 2.63542234 42.2523024"></polyline>
                    </g>
                </g>
                <g id="sun" transform="translate(0.000000, 50.000000)">
                    <circle id="base" stroke-width="3.5" cx="25" cy="26.0638298" r="12.6117021"></circle>
                    <path d="M24.9471288,0.578973589 C24.9471288,0.259215305 25.2183919,4.26325641e-14 25.5319149,4.26325641e-14 C25.8548834,4.26325641e-14 26.116701,0.262602485 26.116701,0.578973589 L26.116701,6.79946357 C26.116701,7.11922186 25.8454379,7.37843716 25.5319149,7.37843716 C25.2089464,7.37843716 24.9471288,7.11583468 24.9471288,6.79946357 L24.9471288,0.578973589 Z M40.4402319,5.20400606 C40.6281811,4.94531617 41.0000005,4.89505104 41.253646,5.07933526 C41.5149329,5.26917136 41.572394,5.6355138 41.3864357,5.8914634 L37.7301235,10.9239455 C37.5421743,11.1826354 37.1703549,11.2329005 36.9167094,11.0486163 C36.6554224,10.8587802 36.5979613,10.4924378 36.7839196,10.2364882 L40.4402319,5.20400606 Z M50.2388646,17.9999556 C50.5429728,17.9011449 50.8733262,18.0790295 50.9702101,18.3772076 C51.0700129,18.6843689 50.9011692,19.0145209 50.6002824,19.1122849 L44.6842448,21.0345221 C44.3801366,21.1333328 44.0497833,20.9554482 43.9528994,20.6572701 C43.8530966,20.3501088 44.0219403,20.0199568 44.3228271,19.9221927 L50.2388646,17.9999556 Z M50.6002824,34.0792044 C50.9043906,34.1780152 51.0670941,34.5161036 50.9702101,34.8142818 C50.8704074,35.121443 50.5397514,35.2892978 50.2388646,35.1915338 L44.3228271,33.2692966 C44.0187189,33.1704859 43.8560154,32.8323974 43.9528994,32.5342193 C44.0527021,32.227058 44.383358,32.0592033 44.6842448,32.1569673 L50.6002824,34.0792044 Z M41.3864357,47.300026 C41.5743849,47.5587159 41.5072914,47.9278699 41.253646,48.1121541 C40.992359,48.3019902 40.6261902,48.2434329 40.4402319,47.9874833 L36.7839196,42.9550012 C36.5959704,42.6963113 36.6630639,42.3271573 36.9167094,42.142873 C37.1779964,41.9530369 37.5441652,42.0115943 37.7301235,42.2675439 L41.3864357,47.300026 Z M26.116701,52.6125158 C26.116701,52.9322741 25.8454379,53.1914894 25.5319149,53.1914894 C25.2089464,53.1914894 24.9471288,52.9288869 24.9471288,52.6125158 L24.9471288,46.3920258 C24.9471288,46.0722675 25.2183919,45.8130522 25.5319149,45.8130522 C25.8548834,45.8130522 26.116701,46.0756547 26.116701,46.3920258 L26.116701,52.6125158 Z M10.6235979,47.9874833 C10.4356487,48.2461732 10.0638293,48.2964383 9.81018384,48.1121541 C9.54889686,47.922318 9.49143578,47.5559756 9.67739405,47.300026 L13.3337063,42.2675439 C13.5216555,42.008854 13.8934749,41.9585888 14.1471204,42.142873 C14.4084074,42.3327092 14.4658684,42.6990516 14.2799102,42.9550012 L10.6235979,47.9874833 Z M0.82496514,35.1915338 C0.520856941,35.2903445 0.190503628,35.1124599 0.093619681,34.8142818 C-0.00618306381,34.5071205 0.162660631,34.1769685 0.46354743,34.0792044 L6.37958497,32.1569673 C6.68369316,32.0581566 7.01404648,32.2360412 7.11093042,32.5342193 C7.21073317,32.8413806 7.04188948,33.1715326 6.74100268,33.2692966 L0.82496514,35.1915338 Z M0.46354743,19.1122849 C0.159439231,19.0134742 -0.00326426571,18.6753857 0.093619681,18.3772076 C0.193422426,18.0700463 0.524078341,17.9021916 0.82496514,17.9999556 L6.74100268,19.9221927 C7.04511087,20.0210035 7.20781437,20.3590919 7.11093042,20.6572701 C7.01112768,20.9644313 6.68047177,21.1322861 6.37958497,21.0345221 L0.46354743,19.1122849 Z M9.67739405,5.8914634 C9.48944485,5.63277351 9.55653837,5.26361947 9.81018384,5.07933526 C10.0714708,4.88949915 10.4376396,4.94805646 10.6235979,5.20400606 L14.2799102,10.2364882 C14.4678594,10.4951781 14.4007659,10.8643321 14.1471204,11.0486163 C13.8858334,11.2384524 13.5196646,11.1798951 13.3337063,10.9239455 L9.67739405,5.8914634 Z" id="around" stroke-width="2" stroke-linecap="round"></path>
                </g>
                <g id="leave" transform="translate(82.978723, 74.468085) rotate(45.000000) translate(-82.978723, -74.468085) translate(62.765957, 42.553191)">
                    <path d="M19.9745261,2.7688082 C19.941153,2.80366402 19.9069472,2.83975869 19.8719469,2.87706556 C19.2455661,3.54472593 18.4240031,4.53524277 17.4857834,5.75789725 C15.4436054,8.41919062 13.0543609,11.9039049 10.8386853,15.4939039 C5.34731207,24.3914268 1.84491441,32.3340287 1.84491441,36.7516401 C1.84491441,46.3162735 9.55787078,53.0913847 19.9745261,53.0913847 C30.3911815,53.0913847 38.1041378,46.3162735 38.1041378,36.7516401 C38.1041378,32.3340287 34.6017402,24.3914268 29.110367,15.4939039 C26.8946913,11.9039049 24.5054469,8.41919062 22.4632689,5.75789725 C21.5250491,4.53524277 20.7034862,3.54472593 20.0771053,2.87706556 C20.0421051,2.83975869 20.0078993,2.80366402 19.9745261,2.7688082 Z" id="Oval-1" stroke-width="3.5"></path>
                    <path d="M20.5090476,21.9478905 L20.5090476,62.913903" id="Line" stroke-width="2" stroke-linecap="round"></path>
                    <path d="M20.5090477,32.7244245 L15.7664917,27.9950057" id="Line" stroke-width="2" stroke-linecap="round"></path>
                    <path d="M20.5090477,44.1581488 L13.3431197,37.0120711" id="Line-Copy-12" stroke-width="2" stroke-linecap="round"></path>
                    <path d="M25.3255076,32.7244245 L20.4656379,27.878017" id="Line-Copy-14" stroke-width="2" stroke-linecap="round" transform="translate(22.917278, 30.322865) scale(-1, 1) translate(-22.917278, -30.322865) "></path>
                    <path d="M27.6749757,44.1581488 L20.5090477,37.0120711" id="Line-Copy-13" stroke-width="2" stroke-linecap="round" transform="translate(24.092012, 40.585110) scale(-1, 1) translate(-24.092012, -40.585110) "></path>
                </g>
            </g>
        </g>
    </g>
</svg>